<svg width="167" height="91" viewBox="0 0 167 91" fill="none" xmlns="http://www.w3.org/2000/svg">
<g clip-path="url(#clip0_917_20473)">
<path d="M98.8531 0H72.207V9.06859C72.207 7.86991 73.179 6.90271 74.3836 6.90271H92.6184C93.823 6.90271 94.7949 7.86991 94.7949 9.06859V28.0035C94.7949 29.1154 93.9434 30.0454 92.8427 30.1611H101.732V2.86855C101.732 1.27721 100.44 0 98.8531 0Z" fill="url(#paint0_linear_917_20473)"/>
<path d="M4.44032 53.8954V77.2778H13.5951V80.8449H0V53.8954H4.44032Z" fill="#2E2A30"/>
<path d="M25.6368 81.1919C19.5184 81.1919 14.8828 76.8478 14.8828 70.1435C14.8828 63.4392 19.7136 59.1322 25.832 59.1322C31.9504 59.1322 36.7812 63.435 36.7812 70.1435C36.7812 76.8519 31.7926 81.1919 25.6368 81.1919ZM25.6368 77.352C28.9473 77.352 32.2204 74.9878 32.2204 70.1393C32.2204 65.2909 29.0636 62.968 25.7531 62.968C22.4426 62.968 19.4021 65.295 19.4021 70.1393C19.4021 74.9836 22.2847 77.352 25.6368 77.352Z" fill="#2E2A30"/>
<path d="M49.5274 81.1919C43.409 81.1919 38.7734 76.8478 38.7734 70.1435C38.7734 63.4392 43.6042 59.1322 49.7226 59.1322C55.841 59.1322 60.6718 63.435 60.6718 70.1435C60.6718 76.8519 55.6832 81.1919 49.5274 81.1919ZM49.5274 77.352C52.8379 77.352 56.111 74.9878 56.111 70.1393C56.111 65.2909 52.9542 62.968 49.6437 62.968C46.3332 62.968 43.2927 65.295 43.2927 70.1393C43.2927 74.9836 46.1754 77.352 49.5274 77.352Z" fill="#2E2A30"/>
<path d="M76.0149 59.1322C81.664 59.1322 86.1084 63.4764 86.1084 70.0649C86.1084 76.6535 81.6681 81.1919 76.0149 81.1919C72.4676 81.1919 69.938 79.4105 68.5341 77.7406V91.0004H64.0938V59.4794H68.5341V62.6208C69.8965 60.8351 72.5092 59.1322 76.0149 59.1322ZM75.0388 62.9721C71.7283 62.9721 68.5299 65.5678 68.5299 70.1435C68.5299 74.7191 71.7241 77.3562 75.0388 77.3562C78.3534 77.3562 81.585 74.6819 81.585 70.0649C81.585 65.448 78.3908 62.968 75.0388 62.968V62.9721Z" fill="#2E2A30"/>
<path d="M98.7713 81.1919C92.6155 81.1919 88.0547 76.8478 88.0547 70.1435C88.0547 63.4392 92.4202 59.1322 98.7713 59.1322C105.122 59.1322 109.214 63.3565 109.214 69.6392C109.214 70.3749 109.176 71.0735 109.056 71.8092H92.6528C92.9644 75.3391 95.4981 77.4678 98.7713 77.4678C101.5 77.4678 103.016 76.1492 103.835 74.4835H108.628C107.419 78.2076 104.03 81.1919 98.7713 81.1919ZM92.6944 68.2421H104.578C104.499 64.9478 101.891 62.8522 98.576 62.8522C95.5771 62.8522 93.1596 64.8693 92.6944 68.2421Z" fill="#2E2A30"/>
<path d="M121.29 59.1325C124.093 59.1325 127.055 60.451 128.692 62.4681V52.1554H133.173V80.8492H128.692V77.6293C127.329 79.5678 124.758 81.1964 121.248 81.1964C115.599 81.1964 111.117 76.6621 111.117 70.0694C111.117 63.4767 115.599 59.1366 121.285 59.1366L121.29 59.1325ZM122.187 62.9724C118.876 62.9724 115.678 65.4524 115.678 70.0694C115.678 74.6863 118.872 77.3606 122.187 77.3606C125.502 77.3606 128.696 74.7649 128.696 70.1479C128.696 65.5309 125.539 62.9765 122.187 62.9765V62.9724Z" fill="#2E2A30"/>
<path d="M137.465 53.821C137.465 52.2296 138.711 50.9896 140.31 50.9896C141.909 50.9896 143.114 52.2296 143.114 53.821C143.114 55.4123 141.868 56.6523 140.31 56.6523C138.752 56.6523 137.465 55.4123 137.465 53.821ZM138.051 59.4795H142.491V80.8449H138.051V59.4795Z" fill="url(#paint1_linear_917_20473)"/>
<path d="M162.595 68.8987C162.595 64.9844 160.452 62.9673 157.216 62.9673C153.98 62.9673 151.8 64.9844 151.8 68.8987V80.84H147.359V59.4746H151.8V61.9175C153.241 60.1732 155.617 59.1274 158.188 59.1274C163.214 59.1274 166.994 62.2688 166.994 68.2415V80.8441H162.591V68.9028L162.595 68.8987Z" fill="url(#paint2_linear_917_20473)"/>
<path d="M101.735 30.1611V34.1374C101.735 34.3358 101.714 34.5301 101.677 34.7243C101.656 34.8111 101.627 34.9103 101.598 34.9971C101.224 36.1958 100.111 37.0638 98.7856 37.0638H68.152C67.3586 37.0638 66.6442 36.7414 66.1166 36.2247C65.5974 35.7081 65.2734 34.9971 65.2734 34.1994V2.85615C65.2734 2.06668 65.5974 1.35574 66.1166 0.839072C66.1665 0.789471 66.2163 0.739871 66.2703 0.698537C66.3534 0.620004 66.4406 0.55387 66.5362 0.487736C66.7605 0.330669 67.018 0.206668 67.2921 0.128134C67.5663 0.0496003 67.8487 0 68.152 0H72.2101V32.5709C72.2101 32.9677 72.5424 33.3025 72.9453 33.3025C73.1323 33.3025 73.3067 33.2322 73.4355 33.1165C73.4604 33.0958 73.4812 33.071 73.5019 33.0503C73.5227 33.0255 73.5435 33.0049 73.5642 32.9801C73.7179 32.7651 73.8841 32.5709 74.0627 32.3725C74.2496 32.1782 74.4448 31.9922 74.6401 31.8186C74.8394 31.6491 75.0513 31.4838 75.2714 31.335C75.4957 31.1862 75.7242 31.0539 75.9651 30.9299C76.314 30.7439 76.6878 30.591 77.0783 30.4711C77.1821 30.438 77.2818 30.4091 77.3857 30.3884C77.531 30.3512 77.6764 30.3182 77.826 30.2892C78.2538 30.2107 78.6941 30.1694 79.1385 30.1694H92.6215C92.7004 30.1694 92.7669 30.1694 92.8458 30.1611H101.735Z" fill="#2E2A30"/>
</g>
<defs>
<linearGradient id="paint0_linear_917_20473" x1="65.6649" y1="26.0732" x2="106.328" y2="4.88357" gradientUnits="userSpaceOnUse">
<stop stop-color="#FFBC45"/>
<stop offset="0.2" stop-color="#FFB744"/>
<stop offset="0.43" stop-color="#FFA942"/>
<stop offset="0.68" stop-color="#FF923E"/>
<stop offset="0.93" stop-color="#FF7339"/>
<stop offset="1" stop-color="#FF6938"/>
</linearGradient>
<linearGradient id="paint1_linear_917_20473" x1="67.4706" y1="103.868" x2="205.977" y2="31.7136" gradientUnits="userSpaceOnUse">
<stop stop-color="#FFBC45"/>
<stop offset="0.2" stop-color="#FFB744"/>
<stop offset="0.43" stop-color="#FFA942"/>
<stop offset="0.68" stop-color="#FF923E"/>
<stop offset="0.93" stop-color="#FF7339"/>
<stop offset="1" stop-color="#FF6938"/>
</linearGradient>
<linearGradient id="paint2_linear_917_20473" x1="72.6258" y1="113.775" x2="211.137" y2="41.6205" gradientUnits="userSpaceOnUse">
<stop stop-color="#FFBC45"/>
<stop offset="0.2" stop-color="#FFB744"/>
<stop offset="0.43" stop-color="#FFA942"/>
<stop offset="0.68" stop-color="#FF923E"/>
<stop offset="0.93" stop-color="#FF7339"/>
<stop offset="1" stop-color="#FF6938"/>
</linearGradient>
<clipPath id="clip0_917_20473">
<rect width="167" height="91" fill="white"/>
</clipPath>
</defs>
</svg>
