<svg width="170" height="94" viewBox="0 0 170 94" fill="none" xmlns="http://www.w3.org/2000/svg">
<g clip-path="url(#clip0_1308_22752)">
<path d="M100.627 0.00927734H69.3759C69.0672 0.00927734 68.7754 0.0600173 68.4964 0.140356C68.2173 0.220694 67.9594 0.351772 67.7268 0.50822C67.5788 0.618157 67.4266 0.73655 67.2998 0.867628C66.7712 1.39617 66.4414 2.12344 66.4414 2.93105V34.9945C66.4414 35.8106 66.7712 36.542 67.2998 37.0706C67.8368 37.5991 68.5683 37.9289 69.3759 37.9289H100.56C101.904 37.9289 103.042 37.041 103.422 35.8148C103.452 35.726 103.482 35.6245 103.503 35.5357C103.541 35.337 103.562 35.1467 103.562 34.9353V2.94374C103.562 1.31583 102.247 0.00927734 100.627 0.00927734ZM94.285 30.8719H80.5598C79.8325 30.8719 79.1222 30.9818 78.4668 31.1805C78.0693 31.2989 77.6888 31.4596 77.3294 31.6499C76.8389 31.8993 76.3907 32.208 75.9805 32.559C75.7818 32.7366 75.5831 32.9268 75.3928 33.1256C75.2152 33.3158 75.0334 33.523 74.8727 33.7429C74.8431 33.7936 74.8008 33.8444 74.7543 33.8824C74.6232 34.0008 74.4456 34.0727 74.2554 34.0727C73.8452 34.0727 73.5069 33.7344 73.5069 33.3243V9.28623C73.5069 8.06002 74.4964 7.07059 75.7226 7.07059H94.285C95.5112 7.07059 96.5006 8.06002 96.5006 9.28623V28.6562C96.5006 29.7936 95.6338 30.7408 94.5175 30.8592C94.4372 30.8676 94.3695 30.8676 94.2892 30.8676L94.285 30.8719Z" fill="white"/>
<path d="M103.562 30.8637V34.9356C103.562 35.1343 103.541 35.3331 103.503 35.536C103.482 35.6248 103.452 35.7263 103.422 35.8151C103.042 37.0413 101.904 37.9293 100.56 37.9293H69.3759C68.5683 37.9293 67.841 37.5994 67.2998 37.0709C66.7712 36.5424 66.4414 35.8151 66.4414 34.9948V2.9356C66.4414 2.12799 66.7712 1.40072 67.2998 0.872179C67.4308 0.7411 67.5704 0.622707 67.7268 0.512771C67.9551 0.352094 68.2173 0.225244 68.4964 0.144906C68.7754 0.0561111 69.063 0.00537109 69.3759 0.00537109H73.5069V33.3288C73.5069 33.739 73.8452 34.0773 74.2554 34.0773C74.4456 34.0773 74.6232 34.0054 74.7543 33.887C74.805 33.8489 74.8431 33.7982 74.8854 33.7474C75.0461 33.5276 75.2152 33.3288 75.3928 33.1301C75.5831 32.9314 75.7818 32.7411 75.9805 32.5635C76.3907 32.2041 76.8389 31.9039 77.3294 31.6544C77.6888 31.4641 78.0693 31.3035 78.4668 31.1851C79.1349 30.9737 79.8325 30.868 80.5725 30.868H103.566L103.562 30.8637Z" fill="white"/>
<path d="M4.52204 55.1427V79.0624H13.8413V82.7114H0.00195312V55.1427H4.52204Z" fill="white"/>
<path d="M26.0995 83.0666C19.8712 83.0666 15.1523 78.6226 15.1523 71.7643C15.1523 64.9059 20.0699 60.5 26.2982 60.5C32.5266 60.5 37.4441 64.9017 37.4441 71.7643C37.4441 78.6268 32.3659 83.0666 26.0995 83.0666ZM26.0995 79.1385C29.4695 79.1385 32.8014 76.7199 32.8014 71.76C32.8014 66.8002 29.5879 64.4239 26.2179 64.4239C22.8479 64.4239 19.7528 66.8044 19.7528 71.76C19.7528 76.7156 22.6872 79.1385 26.0995 79.1385Z" fill="white"/>
<path d="M50.4159 83.0666C44.1876 83.0666 39.4688 78.6226 39.4688 71.7643C39.4688 64.9059 44.3863 60.5 50.6146 60.5C56.843 60.5 61.7605 64.9017 61.7605 71.7643C61.7605 78.6268 56.6823 83.0666 50.4159 83.0666ZM50.4159 79.1385C53.7859 79.1385 57.1178 76.7199 57.1178 71.76C57.1178 66.8002 53.9043 64.4239 50.5343 64.4239C47.1643 64.4239 44.0692 66.8044 44.0692 71.76C44.0692 76.7156 47.0036 79.1385 50.4159 79.1385Z" fill="white"/>
<path d="M77.3853 60.5C83.1358 60.5 87.6601 64.944 87.6601 71.6839C87.6601 78.4239 83.1401 83.0666 77.3853 83.0666C73.7743 83.0666 71.1993 81.2442 69.7701 79.5359V93.1004H65.25V60.8552H69.7701V64.0687C71.157 62.2421 73.8166 60.5 77.3853 60.5ZM76.3917 64.4281C73.0217 64.4281 69.7659 67.0835 69.7659 71.7643C69.7659 76.445 73.0174 79.1427 76.3917 79.1427C79.7659 79.1427 83.0555 76.407 83.0555 71.6839C83.0555 66.9609 79.8039 64.4239 76.3917 64.4239V64.4281Z" fill="white"/>
<path d="M100.548 83.0667C94.2814 83.0667 89.6387 78.6227 89.6387 71.7644C89.6387 64.906 94.0826 60.5001 100.548 60.5001C107.013 60.5001 111.178 64.8215 111.178 71.2485C111.178 72.0012 111.14 72.7158 111.017 73.4684H94.3194C94.6366 77.0794 97.2158 79.257 100.548 79.257C103.326 79.257 104.869 77.9082 105.702 76.2041H110.582C109.351 80.0139 105.901 83.0667 100.548 83.0667ZM94.3617 69.8194H106.459C106.379 66.4494 103.723 64.3056 100.349 64.3056C97.2962 64.3056 94.8353 66.369 94.3617 69.8194Z" fill="white"/>
<path d="M123.472 60.5C126.326 60.5 129.341 61.8488 131.007 63.9122V53.3625H135.57V82.7156H131.007V79.4217C129.62 81.4048 127.003 83.0708 123.43 83.0708C117.68 83.0708 113.117 78.4323 113.117 71.6881C113.117 64.9439 117.68 60.5042 123.468 60.5042L123.472 60.5ZM124.386 64.4281C121.016 64.4281 117.76 66.9651 117.76 71.6881C117.76 76.4112 121.011 79.1469 124.386 79.1469C127.76 79.1469 131.011 76.4915 131.011 71.7685C131.011 67.0454 127.798 64.4323 124.386 64.4323V64.4281Z" fill="white"/>
<path d="M139.934 55.0666C139.934 53.4387 141.202 52.1702 142.83 52.1702C144.458 52.1702 145.684 53.4387 145.684 55.0666C145.684 56.6945 144.416 57.963 142.83 57.963C141.244 57.963 139.934 56.6945 139.934 55.0666ZM140.53 60.8552H145.05V82.7114H140.53V60.8552Z" fill="white"/>
<path d="M165.519 70.4958C165.519 66.4915 163.337 64.4281 160.044 64.4281C156.75 64.4281 154.53 66.4915 154.53 70.4958V82.7114H150.01V60.8552H154.53V63.3541C155.997 61.5698 158.416 60.5 161.033 60.5C166.149 60.5 169.997 63.7135 169.997 69.8235V82.7156H165.515V70.5L165.519 70.4958Z" fill="white"/>
</g>
<defs>
<clipPath id="clip0_1308_22752">
<rect width="170" height="93.1036" fill="white"/>
</clipPath>
</defs>
</svg>
